# xmcd CD database file
#
# Track frame offsets:
#	182
#	23597
#	51497
#	69312
#	93487
#	122655
#	139907
#	166670
#
# Disc length: 2489 seconds
#
# Revision: 0
# Processed by: cddbd v1.5PL3 Copyright (c) Steve Scherf et al.
# Submitted via: CDex 1.51
#
DISCID=6509b708
DTITLE=tropical band - temas
DYEAR=1900
DGENRE=Salsa
TTITLE0=quem e ela
TTITLE1=apalpadela
TTITLE2=estou sempre em as
TTITLE3=turruando na ilha
TTITLE4=ja quer
TTITLE5=amanhecer
TTITLE6=solidao de saudade
TTITLE7=suzy
EXTD=
EXTT0=
EXTT1=
EXTT2=
EXTT3=
EXTT4=
EXTT5=
EXTT6=
EXTT7=
PLAYORDER=
